/* XPM */
static char *backlight_off_xpm[] = {
/* width height num_colors chars_per_pixel */
"    58    58        9            1",
/* colors */
". c None",
"# c #020202",
"a c #0a0a0a",
"b c #484c46",
"c c #dedede",
"d c #7c827c",
"e c #8e968a",
"f c #767c6f",
"g c #3e463e",
/* pixels */
"..######################################################..",
".#aaaaaaaaaaaaaaaaaaaaaaaaaaaaaaaaaaaaaaaaaaaaaaaaaaaaaa#.",
"#aabbbbbbbbbbbbbbbbbbbbbbbbbbbbbbbbbbbbbbbbbbbbbbbbbbbbb#c",
"#abbdddddddddddddddddddddddddddddddddddddddddddddddddddd#c",
"#abddeeeeeeeeeeeeeeeeeeeeeeeeeeeeeeeeeeeeeeeeeeeeeeeeeee#c",
"#abdeeeeeeeeeeeeeeeeeeeeeeeeeeeeeeeeeeeeeeeeeeeeeeeeeeee#c",
"#abdeeeeeeeeeeeeeeeeeeeeeeeeeeeeeeeeeeeeeeeeeeeeeeeeeeee#c",
"#abdeeeffffffeeeeeeffffffeeeeeeeeeffffffeeeeeeffffffeeee#c",
"#abdefeeffffeefeefeeffffeefeeeeefeeffffeefeefeeffffeefee#c",
"#abdeffeeeeeeffeeffeeeeeeffeeeeeffeeeeeeffeeffeeeeeeffee#c",
"#abdeffeeeeeeffeeffeeeeeeffeeeeeffeeeeeeffeeffeeeeeeffee#c",
"#abdeffeeeeeeffeeffeeeeeeffe##eeffeeeeeeffeeffeeeeeeffee#c",
"#abdeffeeeeeeffeeffeeeeeeffe##feffeeeeeeffeeffeeeeeeffee#c",
"#abdeffeeeeeeffeeffeeeeeeffeeffeffeeeeeeffeeffeeeeeeffee#c",
"#abdeffeeeeeeffeeffeeeeeeffeeeeeffeeeeeeffeeffeeeeeeffee#c",
"#abdeffeeeeeeffeeffeeeeeeffeeeeeffeeeeeeffeeffeeeeeeffee#c",
"#abdefeeffffeefeefeeffffeefeeeeefeeffffeefeefeeffffeefee#c",
"#abdeeeffffffeeeeeeffffffeeeeeeeeeffffffeeeeeeffffffeeee#c",
"#abdefeeeeeeeefeefeeeeeeeefeeeeefeeeeeeeefeefeeeeeeeefee#c",
"#abdeffeeeeeeffeeffeeeeeeffeeeeeffeeeeeeffeeffeeeeeeffee#c",
"#abdeffeeeeeeffeeffeeeeeeffe##eeffeeeeeeffeeffeeeeeeffee#c",
"#abdeffeeeeeeffeeffeeeeeeffe##feffeeeeeeffeeffeeeeeeffee#c",
"#abdeffeeeeeeffeeffeeeeeeffeeffeffeeeeeeffeeffeeeeeeffee#c",
"#abdeffeeeeeeffeeffeeeeeeffeeeeeffeeeeeeffeeffeeeeeeffee#c",
"#abdeffeeeeeeffeeffeeeeeeffeeeeeffeeeeeeffeeffeeeeeeffee#c",
"#abdefeeffffeefeefeeffffeefeeeeefeeffffeefeefeeffffeefee#c",
"#abdeeeffffffeeeeeeffffffeeeeeeeeeffffffeeeeeeffffffeeee#c",
"#abdeeeeeeeeeeeeeeeeeeeeeeeeeeeeeeeeeeeeeeeeeeeeeeeeeeee#c",
"#abdegggggggggggggggggggggggggggggggggggggggggggggggggee#c",
"#abdegggggggggggggggggggggggggggggggggggggggggggggggggfe#c",
"#abdeefffffffffffffffffffffffffffffffffffffffffffffffffe#c",
"#abdeeeeeeeeeeeeeeeeeeeeeeeeeeeeeeeeeeeeeeeeeeeeeeeeeeee#c",
"#abdeeeeeeeeeeeeeeeeeeeeeeeeeeeeeeeeeeeeeeeeeeeeeeeeeeee#c",
"#abdeeffeffeffeffeffeffeffeffeffeffeffeffeffeffeffeffeee#c",
"#abdeeeeeeeeeeeeeeeeeeeeeeeeeeeeeeeeeeeeeeeeeeeeeeeeeeee#c",
"#abdeeffeffeffeffeffeffeffeffeffeffeffeffeffeffeffeffeee#c",
"#abdeeeeeeeeeeeeeeeeeeeeeeeeeeeeeeeeeeeeeeeeeeeeeeeeeeee#c",
"#abdeeffeffeffeffeffeffeffeffeffeffeffeffeffeffeffeffeee#c",
"#abdeeeeeeeeeeeeeeeeeeeeeeeeeeeeeeeeeeeeeeeeeeeeeeeeeeee#c",
"#abdeeffeffeffeffeffeffeffeffeffeffeffeffeffeffeffeffeee#c",
"#abdeeeeeeeeeeeeeeeeeeeeeeeeeeeeeeeeeeeeeeeeeeeeeeeeeeee#c",
"#abdeeffeffeffeffeffeffeffeffeffeffeffeffeffeffeffeffeee#c",
"#abdeeeeeeeeeeeeeeeeeeeeeeeeeeeeeeeeeeeeeeeeeeeeeeeeeeee#c",
"#abdeeeeeeeeeeeeeeeeeeeeeeeeeeeeeeeeeeeeeeeeeeeeeeeeeeee#c",
"#abdeeeeeeeeeeeeeeeeeeeeeeeeeeeeeeeeeeeeeeeeeeeeeeeeeeee#c",
"#abdeefffeeefffeeefffeeeeeeeeeeeeeefefeeeefffeeeefffeeee#c",
"#abdefeeefefeeefefeeefeeeeeeeeeeeeefefeeefeeefeefffffeee#c",
"#abdefeeefefeeefefeeefeeeeeeeeeeeefffffeefeeefeefeeefeee#c",
"#abdefeeefefeeefefeeefe###eee#eeeefeeefeefeeefeefeeefeee#c",
"#abdeefffeeefffeeefffee#e#ee#eeeeefeeefeeefffeeefeeefeee#c",
"#abdefeeefefeeefefeeefe###e#eeeeeeefffeeefeeefeefeeefeee#c",
"#abdefeeefefeeefefeeefeeee#e###eeeeefeeeefeeefeefeeefeee#c",
"#abdefeeefefeeefefeeefeee#ee#e#eeeeefeeeefeeefeefeeefeee#c",
"#abdeefffeeefffeeefffeee#eee###eeeeeefeeeefffeeefffffeee#c",
"#abdeeeeeeeeeeeeeeeeeeeeeeeeeeeeeeeeeeeeeeeeeeeeeeeeeeee#c",
"#abdeeeeeeeeeeeeeeeeeeeeeeeeeeeeeeeeeeeeeeeeeeeeeeeeeee##c",
".#######################################################c.",
"..cccccccccccccccccccccccccccccccccccccccccccccccccccccc.."
};
